# Blender 3.3.0
# www.blender.org
mtllib 000048.mtl
o 000048
v 0.779648 1.812413 0.274325
v 0.729207 1.768430 0.311899
v 0.781806 1.831557 0.198788
v 0.673347 1.817120 0.245657
v 0.668647 1.711913 0.271850
v 0.794397 1.794792 0.092732
v 0.686073 1.812556 0.098687
v 0.636562 1.719057 0.171299
v 0.758520 1.568650 0.280173
v 0.850787 1.592234 0.313017
v 0.958691 1.590678 0.168751
v 1.047065 1.464152 0.258009
v 0.756242 1.701755 0.042002
v 0.674042 1.681079 0.091068
v 0.939745 1.586577 0.079078
v 0.798073 1.477120 0.190167
v 0.919883 1.471929 0.042801
v 1.085266 1.435367 0.166471
v 0.957530 1.293537 0.102475
v 0.916808 1.331091 0.197314
v 0.961013 1.309536 0.289550
v 1.068250 1.304236 0.318166
v 1.065355 1.424473 0.076067
v 1.048185 1.285056 0.043873
v 1.204254 1.209055 0.251882
v 0.948913 1.231793 0.209862
v 1.015780 1.196513 0.304641
v 1.151243 1.152552 0.323859
v 1.179503 1.217440 0.073820
v 0.932382 1.195023 0.105654
v 0.883148 1.173642 0.271112
v 1.241085 1.012051 0.317900
v 1.113396 1.164255 0.033402
v 0.995930 1.173622 0.063703
v 1.291129 1.054862 0.154853
v 0.805619 1.179389 0.169116
v 0.976733 1.090960 0.321805
v 1.323036 0.957697 0.247646
v 0.819428 1.080274 0.325320
v 1.146590 0.996554 0.330244
v 1.065527 0.980113 0.313946
v 1.298104 0.946484 0.066649
v 0.926400 0.984867 0.275075
v 0.866276 1.077016 0.038203
v 0.699072 1.076955 0.059896
v 1.060824 1.029917 0.038310
v 0.765011 0.985753 0.317728
v 0.675422 1.098620 0.241370
v 1.025313 0.931404 0.215499
v 1.192407 0.988879 0.031847
v 0.686133 1.112860 0.140604
v 0.817353 0.919647 0.253653
v 0.960533 0.955953 0.171473
v 0.895753 0.984927 0.089291
v 1.018933 0.957280 0.091341
v 0.679013 1.042900 0.300897
v 0.865647 0.949607 0.174545
v 1.095627 0.837208 0.204967
v 1.119753 0.826867 0.282089
v 1.205821 0.761681 0.326216
v 1.135460 0.900417 0.047651
v 0.630870 1.004002 0.124909
v 0.762427 0.844225 0.313790
v 0.844300 0.864780 0.167413
v 0.806433 0.910447 0.094785
v 0.706882 0.895542 0.044154
v 1.085760 0.866233 0.125534
v 0.671132 0.887905 0.297863
v 0.627131 0.936310 0.217608
v 0.890296 0.791562 0.241983
v 1.380742 0.619435 0.301846
v 1.280687 0.730329 0.033467
v 1.440312 0.642669 0.138182
v 0.843353 0.804687 0.078018
v 0.960463 0.758242 0.154793
v 1.055953 0.742880 0.243285
v 1.432553 0.659300 0.230547
v 0.651620 0.843493 0.108161
v 1.098287 0.752413 0.121605
v 0.943610 0.698613 0.304893
v 0.741432 0.725741 0.284233
v 1.269912 0.602194 0.325119
v 1.068867 0.649053 0.319510
v 1.171765 0.697956 0.044092
v 1.354006 0.666773 0.034918
v 0.670467 0.783227 0.203395
v 1.002114 0.703260 0.072991
v 0.782091 0.737875 0.060970
v 1.355904 0.530537 0.238934
v 0.743166 0.707328 0.119563
v 0.759906 0.684335 0.202163
v 1.203900 0.515934 0.283834
v 1.045197 0.555641 0.292941
v 1.356193 0.556205 0.088690
v 1.013865 0.607697 0.056470
v 1.274381 0.497092 0.133003
v 1.216422 0.556994 0.050946
v 1.023190 0.531349 0.205251
v 1.130313 0.500541 0.199495
v 1.051779 0.529767 0.116258
vn -0.1463 0.7342 0.6630
vn -0.0232 0.9693 0.2450
vn -0.6671 0.2079 0.7154
vn -0.1503 0.9877 -0.0437
vn -0.9434 0.1192 0.3095
vn -0.4030 -0.2009 0.8929
vn 0.4020 0.2829 0.8708
vn 0.1373 0.9408 -0.3098
vn 0.8045 0.5699 0.1674
vn -0.9076 0.4097 -0.0913
vn -0.8305 -0.5077 0.2289
vn -0.2855 -0.1910 0.9392
vn 0.4284 0.2889 0.8561
vn 0.7941 0.5972 -0.1127
vn 0.7927 0.6052 0.0731
vn 0.7982 0.5700 -0.1947
vn 0.0285 0.4695 -0.8825
vn -0.8803 0.1073 -0.4621
vn 0.3764 0.3198 -0.8695
vn -0.5280 0.0972 -0.8436
vn -0.8242 -0.5360 0.1828
vn 0.3306 0.2322 -0.9148
vn 0.7700 0.6257 0.1246
vn -0.8214 -0.5577 -0.1197
vn 0.7598 0.6220 -0.1890
vn -0.4291 -0.3085 -0.8489
vn -0.7857 -0.5810 -0.2124
vn -0.7520 -0.5979 0.2775
vn -0.2859 -0.1895 0.9393
vn 0.4644 0.3651 0.8069
vn 0.7651 0.5973 -0.2405
vn -0.4703 -0.3676 -0.8023
vn -0.7714 -0.6312 -0.0813
vn -0.7707 -0.5940 0.2306
vn -0.2619 -0.1808 0.9480
vn 0.2908 0.2425 -0.9256
vn 0.2757 0.1839 -0.9435
vn 0.5970 0.3505 0.7216
vn -0.5289 -0.3675 -0.7650
vn 0.8381 0.5119 0.1888
vn -0.8957 -0.2425 0.3726
vn -0.2576 0.0042 0.9662
vn 0.5982 0.3543 0.7187
vn 0.8482 0.4703 -0.2435
vn -0.9085 -0.3267 -0.2607
vn -0.8236 -0.3383 0.4551
vn -0.1556 -0.0481 0.9867
vn 0.3052 0.1784 -0.9354
vn -0.9663 0.2488 0.0655
vn -0.2679 0.8258 0.4964
vn 0.5994 0.3528 0.7185
vn 0.3409 0.2623 -0.9028
vn -0.5335 0.1007 -0.8398
vn 0.8795 0.4748 0.0329
vn -0.2566 0.9235 -0.2851
vn -0.5227 0.1061 -0.8459
vn -0.2779 0.2535 0.9266
vn -0.4088 0.8395 0.3580
vn -0.0779 0.1880 0.9791
vn 0.7315 0.3357 0.5936
vn 0.8520 0.4681 -0.2345
vn -0.2534 -0.0531 -0.9659
vn 0.8970 0.4216 0.1331
vn -0.0154 0.5099 0.8601
vn 0.1235 0.0369 0.9917
vn 0.0103 -0.0625 0.9980
vn 0.8370 0.3768 -0.3969
vn 0.0489 -0.4219 0.9053
vn -0.2059 0.0461 0.9775
vn -0.2672 -0.2794 0.9222
vn 0.3923 0.1955 -0.8988
vn -0.2947 0.5933 -0.7491
vn -0.3296 0.8275 -0.4545
vn -0.2448 0.0604 -0.9677
vn 0.2482 -0.2187 0.9437
vn -0.3621 0.8739 0.3244
vn -0.1664 -0.8551 0.4911
vn 0.3705 0.1750 -0.9122
vn -0.1086 0.5385 -0.8356
vn 0.0477 0.1946 -0.9797
vn -0.3601 0.8296 -0.4268
vn -0.3287 0.6319 0.7019
vn 0.2025 -0.5942 0.7784
vn -0.4979 0.8645 0.0692
vn -0.4186 -0.9010 0.1135
vn -0.0538 -0.0154 -0.9984
vn -0.1233 -0.5113 -0.8505
vn -0.2982 0.6878 0.6618
vn 0.5148 -0.8573 -0.0104
vn -0.6481 -0.5434 0.5336
vn -0.1420 -0.2494 0.9579
vn 0.1271 0.0150 0.9918
vn 0.0732 -0.9541 0.2904
vn -0.0863 -0.1211 -0.9889
vn -0.1084 -0.5446 -0.8316
vn -0.8187 0.4643 -0.3378
vn -0.4680 -0.3289 -0.8202
vn -0.1773 0.0230 0.9839
vn 0.7576 -0.0320 0.6519
vn 0.8653 -0.2541 0.4320
vn -0.8895 0.4559 -0.0301
vn -0.9007 -0.3670 0.2325
vn -0.5387 -0.1501 0.8290
vn -0.2346 -0.9540 -0.1868
vn 0.0502 -0.9288 -0.3671
vn 0.2770 -0.3968 -0.8751
vn -0.1283 0.0803 -0.9885
vn -0.2130 -0.9619 -0.1712
vn -0.5212 -0.6076 -0.5993
vn -0.1979 -0.0091 0.9802
vn -0.9312 0.2364 0.2775
vn -0.1829 -0.0240 0.9828
vn 0.8288 -0.1636 -0.5350
vn 0.8663 0.4975 -0.0458
vn -0.9532 0.2613 0.1524
vn -0.8022 -0.5860 -0.1145
vn -0.7873 -0.6104 -0.0868
vn 0.6342 -0.7675 -0.0940
vn 0.7164 0.2279 0.6594
vn 0.3518 0.1143 -0.9291
vn 0.9402 0.3390 0.0317
vn 0.4597 -0.4292 -0.7775
vn -0.7068 0.0309 -0.7068
vn -0.8674 0.0344 0.4963
vn 0.5485 0.2394 0.8012
vn 0.9019 0.3541 -0.2476
vn 0.6665 0.6946 0.2709
vn -0.8198 0.4748 0.3201
vn -0.4799 -0.0404 0.8764
vn 0.1476 0.0121 0.9890
vn 0.7227 0.2278 0.6525
vn -0.1720 -0.0649 -0.9830
vn 0.8803 0.3323 -0.3387
vn 0.9389 0.3436 0.0170
vn -0.7457 -0.0269 -0.6657
vn -0.8263 -0.0717 -0.5587
vn 0.5556 0.6605 0.5050
vn -0.2566 -0.1909 0.9475
vn 0.5717 0.6781 -0.4619
vn 0.4019 0.2786 -0.8723
vn -0.9903 -0.1118 0.0822
vn -0.9171 0.2645 -0.2983
vn -0.4626 0.5198 0.7182
vn 0.1943 0.0714 0.9783
vn -0.0971 0.0001 -0.9953
vn 0.7730 0.2219 -0.5943
vn -0.9857 -0.1146 -0.1234
vn -0.7625 -0.1256 -0.6346
vn -0.9025 -0.2854 0.3226
vn -0.1282 -0.2186 0.9674
vn -0.8116 -0.3885 0.4362
vn 0.5094 0.8116 -0.2861
vn 0.2512 0.0166 -0.9678
vn 0.0663 0.9927 0.1008
vn -0.0325 -0.0199 0.9993
vn 0.1634 0.6355 0.7546
vn 0.8191 -0.4658 0.3348
vn 0.1401 0.1392 -0.9803
vn 0.8526 -0.4971 0.1611
vn -0.5046 -0.4032 -0.7635
vn -0.9616 -0.2738 0.0170
vn -0.7298 -0.6622 0.1698
vn 0.0813 0.1758 -0.9811
vn -0.6635 -0.3849 -0.6415
vn 0.2803 0.9500 -0.1375
vn -0.1088 0.7985 -0.5921
vn -0.0857 -0.2524 0.9638
vn 0.1759 0.6190 0.7655
vn -0.1989 -0.2212 0.9547
vn 0.2527 -0.6050 0.7551
vn -0.0671 -0.1001 -0.9927
vn 0.6952 -0.3032 -0.6518
vn 0.7434 -0.6595 -0.1112
vn -0.8066 -0.5585 -0.1938
vn -0.0820 0.7773 -0.6238
vn -0.7414 -0.6701 -0.0363
vn 0.0818 0.1795 -0.9803
vn 0.2814 -0.5809 0.7638
vn -0.0479 -0.4012 0.9148
vn -0.1226 -0.1689 0.9780
vn 0.5280 -0.8373 -0.1420
vn -0.0618 -0.0680 -0.9958
vn -0.1615 0.1488 -0.9756
vn -0.4810 -0.8215 0.3062
vn -0.3944 -0.6809 -0.6170
vn 0.1496 -0.9701 0.1911
vn -0.2086 -0.9137 0.3488
vn -0.4664 -0.8154 0.3429
vn 0.2342 -0.4214 -0.8761
vn -0.0427 -0.0620 -0.9972
vn -0.4964 -0.8571 -0.1380
vn -0.3936 -0.6724 -0.6269
vn 0.0425 -0.9888 0.1434
vn -0.2466 -0.9163 0.3157
vn 0.1735 -0.7331 -0.6577
vn -0.1835 -0.6530 -0.7348
vn -0.4947 -0.8571 -0.1437
vn -0.2793 -0.9575 -0.0727
vn -0.0807 -0.8313 -0.5499
vn -0.1253 -0.9671 -0.2213
s 0
f 1//1 4//1 2//1
f 3//2 4//2 1//2
f 5//3 2//3 4//3
f 3//4 7//4 4//4
f 5//5 4//5 8//5
f 5//6 9//6 2//6
f 10//7 1//7 2//7
f 6//8 7//8 3//8
f 11//9 3//9 1//9
f 8//10 4//10 7//10
f 8//11 9//11 5//11
f 10//12 2//12 9//12
f 12//13 1//13 10//13
f 11//14 6//14 3//14
f 12//15 11//15 1//15
f 11//16 15//16 6//16
f 13//17 7//17 6//17
f 14//18 8//18 7//18
f 15//19 13//19 6//19
f 13//20 14//20 7//20
f 16//21 9//21 8//21
f 15//22 17//22 13//22
f 18//23 11//23 12//23
f 16//24 8//24 14//24
f 18//25 15//25 11//25
f 14//26 13//26 17//26
f 19//27 16//27 14//27
f 20//28 9//28 16//28
f 21//29 10//29 9//29
f 22//30 12//30 10//30
f 18//31 23//31 15//31
f 19//32 14//32 17//32
f 20//33 16//33 19//33
f 20//34 21//34 9//34
f 22//35 10//35 21//35
f 17//36 15//36 23//36
f 24//37 17//37 23//37
f 22//38 25//38 12//38
f 24//39 19//39 17//39
f 25//40 18//40 12//40
f 20//41 26//41 21//41
f 21//42 27//42 22//42
f 22//43 28//43 25//43
f 18//44 29//44 23//44
f 20//45 19//45 26//45
f 21//46 26//46 27//46
f 22//47 27//47 28//47
f 24//48 23//48 29//48
f 30//49 26//49 19//49
f 31//50 27//50 26//50
f 32//51 25//51 28//51
f 24//52 29//52 33//52
f 24//53 34//53 19//53
f 25//54 35//54 18//54
f 30//55 36//55 26//55
f 30//56 19//56 34//56
f 37//57 27//57 31//57
f 31//58 26//58 36//58
f 28//59 27//59 37//59
f 32//60 38//60 25//60
f 29//61 18//61 35//61
f 24//62 33//62 34//62
f 25//63 38//63 35//63
f 37//64 31//64 39//64
f 28//65 40//65 32//65
f 41//66 28//66 37//66
f 29//67 35//67 42//67
f 43//68 37//68 39//68
f 41//69 40//69 28//69
f 41//70 37//70 43//70
f 29//71 42//71 33//71
f 44//72 30//72 34//72
f 36//73 30//73 45//73
f 34//74 33//74 46//74
f 43//75 39//75 47//75
f 36//76 48//76 31//76
f 49//77 41//77 43//77
f 50//78 33//78 42//78
f 44//79 45//79 30//79
f 44//80 34//80 46//80
f 36//81 45//81 51//81
f 39//82 31//82 48//82
f 43//83 47//83 52//83
f 36//84 51//84 48//84
f 53//85 49//85 43//85
f 50//86 46//86 33//86
f 54//87 44//87 46//87
f 39//88 48//88 56//88
f 43//89 52//89 57//89
f 58//90 41//90 49//90
f 40//91 41//91 59//91
f 60//92 32//92 40//92
f 53//93 43//93 57//93
f 61//94 46//94 50//94
f 55//95 54//95 46//95
f 51//96 45//96 62//96
f 61//97 55//97 46//97
f 47//98 39//98 56//98
f 47//99 63//99 52//99
f 64//100 57//100 52//100
f 48//101 51//101 62//101
f 58//102 59//102 41//102
f 60//103 40//103 59//103
f 49//104 53//104 55//104
f 53//105 57//105 54//105
f 54//106 65//106 44//106
f 66//107 45//107 44//107
f 53//108 54//108 55//108
f 67//109 55//109 61//109
f 68//110 47//110 56//110
f 48//111 69//111 56//111
f 68//112 63//112 47//112
f 65//113 57//113 64//113
f 70//114 64//114 52//114
f 48//115 62//115 69//115
f 67//116 58//116 49//116
f 67//117 49//117 55//117
f 54//118 57//118 65//118
f 38//119 32//119 71//119
f 42//120 72//120 50//120
f 73//121 35//121 38//121
f 66//122 44//122 65//122
f 66//123 62//123 45//123
f 68//124 56//124 69//124
f 70//125 52//125 63//125
f 65//126 64//126 74//126
f 70//127 75//127 64//127
f 58//128 76//128 59//128
f 60//129 59//129 76//129
f 60//130 71//130 32//130
f 38//131 71//131 77//131
f 72//132 61//132 50//132
f 42//133 35//133 73//133
f 73//134 38//134 77//134
f 78//135 62//135 66//135
f 79//136 67//136 61//136
f 80//137 70//137 63//137
f 63//138 68//138 81//138
f 64//139 75//139 74//139
f 65//140 74//140 66//140
f 79//141 58//141 67//141
f 79//142 76//142 58//142
f 83//143 60//143 76//143
f 82//144 71//144 60//144
f 84//145 61//145 72//145
f 85//146 42//146 73//146
f 78//147 69//147 62//147
f 84//148 79//148 61//148
f 68//149 69//149 86//149
f 80//150 63//150 81//150
f 81//151 68//151 86//151
f 75//152 87//152 74//152
f 88//153 66//153 74//153
f 79//154 75//154 76//154
f 82//155 60//155 83//155
f 83//156 76//156 80//156
f 71//157 89//157 77//157
f 72//158 42//158 85//158
f 77//159 89//159 73//159
f 78//160 66//160 90//160
f 78//161 86//161 69//161
f 91//162 81//162 86//162
f 87//163 88//163 74//163
f 90//164 66//164 88//164
f 70//165 76//165 75//165
f 79//166 87//166 75//166
f 93//167 82//167 83//167
f 80//168 76//168 70//168
f 83//169 80//169 93//169
f 82//170 89//170 71//170
f 72//171 85//171 84//171
f 94//172 85//172 73//172
f 94//173 73//173 89//173
f 78//174 90//174 86//174
f 79//175 84//175 87//175
f 91//176 86//176 90//176
f 95//177 88//177 87//177
f 92//178 89//178 82//178
f 92//179 82//179 93//179
f 93//180 80//180 81//180
f 96//181 94//181 89//181
f 85//182 97//182 84//182
f 95//183 87//183 84//183
f 81//184 91//184 98//184
f 95//185 90//185 88//185
f 92//186 96//186 89//186
f 92//187 93//187 99//187
f 93//188 81//188 98//188
f 94//189 97//189 85//189
f 97//190 95//190 84//190
f 90//191 98//191 91//191
f 100//192 90//192 95//192
f 92//193 99//193 96//193
f 93//194 98//194 99//194
f 96//195 97//195 94//195
f 97//196 100//196 95//196
f 100//197 98//197 90//197
f 100//198 99//198 98//198
f 96//199 100//199 97//199
f 96//200 99//200 100//200
